<?xml version="1.0" standalone="no"?><svg version="1.1" xmlns="http://www.w3.org/2000/svg" width="546.5166625976562" height="260"><svg x="223.31666564941406" y="27.5" width="89.68333435058594" height="92"><path d="M4,66L30.34166717529297,66Q40.34166717529297,66,40.34166717529297,56L40.34166717529297,32Q40.34166717529297,22,50.34166717529297,22L76.68333435058594,22L50.34166717529297,22Q40.34166717529297,22,40.34166717529297,32L40.34166717529297,56Q40.34166717529297,66,30.34166717529297,66L4,66L4,66M4,62L14,66L4,70M66.68333435058594,18L66.68333435058594,26" fill="none" stroke="#9B9CA4" stroke-width="1"></path><text x="7" y="63" style="font-family: Open Sans, sans-serif; font-size: 14px; font-weight: normal; fill: transparent;">*</text><text x="65.68333435058594" y="19" style="font-family: Open Sans, sans-serif; font-size: 14px; font-weight: normal; fill: transparent;">1</text></svg><svg x="223.31666564941406" y="137.5" width="89.68333435058594" height="66"><path d="M4,22L31.34166717529297,22Q40.34166717529297,22,40.34166717529297,31L40.34166717529297,31Q40.34166717529297,40,49.34166717529297,40L76.68333435058594,40L49.34166717529297,40Q40.34166717529297,40,40.34166717529297,31L40.34166717529297,31Q40.34166717529297,22,31.34166717529297,22L4,22L4,22M4,18L14,22L4,26M66.68333435058594,36L66.68333435058594,44" fill="none" stroke="#9B9CA4" stroke-width="1"></path><text x="7" y="19" style="font-family: Open Sans, sans-serif; font-size: 14px; font-weight: normal; fill: transparent;">*</text><text x="65.68333435058594" y="37" style="font-family: Open Sans, sans-serif; font-size: 14px; font-weight: normal; fill: transparent;">1</text></svg><svg x="0" y="44"><rect x="0" y="0" width="227.31666564941406" height="33" fill="#222"></rect><text x="10" y="19.75" style="font-family: Open Sans, sans-serif; font-size: 13px; font-weight: bold; fill: rgb(255, 255, 255);">sales</text></svg><svg x="0" y="77"><rect x="0" y="0" width="227.31666564941406" height="33" fill="#37383F"></rect><text x="10" y="19.75" style="font-family: Open Sans, sans-serif; font-size: 13px; fill: rgb(215, 215, 217);">customer_id</text><text x="144.23332977294922" y="19.75" style="font-family: Open Sans, sans-serif; font-size: 13px; fill: rgb(215, 215, 217);">VARCHAR(1)</text></svg><svg x="0" y="110"><rect x="0" y="0" width="227.31666564941406" height="33" fill="#37383F"></rect><text x="10" y="19.75" style="font-family: Open Sans, sans-serif; font-size: 13px; fill: rgb(215, 215, 217);">order_date</text><text x="185.28333282470703" y="19.75" style="font-family: Open Sans, sans-serif; font-size: 13px; fill: rgb(215, 215, 217);">DATE</text></svg><svg x="0" y="143"><rect x="0" y="0" width="227.31666564941406" height="33" fill="#37383F"></rect><text x="10" y="19.75" style="font-family: Open Sans, sans-serif; font-size: 13px; fill: rgb(215, 215, 217);">product_id</text><text x="164.83333206176758" y="19.75" style="font-family: Open Sans, sans-serif; font-size: 13px; fill: rgb(215, 215, 217);">INTEGER</text></svg><svg x="300" y="128"><rect x="0" y="0" width="241.51666259765625" height="33" fill="#222"></rect><text x="10" y="19.75" style="font-family: Open Sans, sans-serif; font-size: 13px; font-weight: bold; fill: rgb(255, 255, 255);">menu</text></svg><svg x="300" y="161"><rect x="0" y="0" width="241.51666259765625" height="33" fill="#37383F"></rect><text x="10" y="19.75" style="font-family: Open Sans, sans-serif; font-size: 13px; fill: rgb(215, 215, 217);">product_id</text><text x="179.03332901000977" y="19.75" style="font-family: Open Sans, sans-serif; font-size: 13px; fill: rgb(215, 215, 217);">INTEGER</text></svg><svg x="300" y="194"><rect x="0" y="0" width="241.51666259765625" height="33" fill="#37383F"></rect><text x="10" y="19.75" style="font-family: Open Sans, sans-serif; font-size: 13px; fill: rgb(215, 215, 217);">product_name</text><text x="158.4333267211914" y="19.75" style="font-family: Open Sans, sans-serif; font-size: 13px; fill: rgb(215, 215, 217);">VARCHAR(5)</text></svg><svg x="300" y="227"><rect x="0" y="0" width="241.51666259765625" height="33" fill="#37383F"></rect><text x="10" y="19.75" style="font-family: Open Sans, sans-serif; font-size: 13px; fill: rgb(215, 215, 217);">price</text><text x="179.03332901000977" y="19.75" style="font-family: Open Sans, sans-serif; font-size: 13px; fill: rgb(215, 215, 217);">INTEGER</text></svg><svg x="300" y="0"><rect x="0" y="0" width="227.31666564941406" height="33" fill="#222"></rect><text x="10" y="19.75" style="font-family: Open Sans, sans-serif; font-size: 13px; font-weight: bold; fill: rgb(255, 255, 255);">members</text></svg><svg x="300" y="33"><rect x="0" y="0" width="227.31666564941406" height="33" fill="#37383F"></rect><text x="10" y="19.75" style="font-family: Open Sans, sans-serif; font-size: 13px; fill: rgb(215, 215, 217);">customer_id</text><text x="144.23332977294922" y="19.75" style="font-family: Open Sans, sans-serif; font-size: 13px; fill: rgb(215, 215, 217);">VARCHAR(1)</text></svg><svg x="300" y="66"><rect x="0" y="0" width="227.31666564941406" height="33" fill="#37383F"></rect><text x="10" y="19.75" style="font-family: Open Sans, sans-serif; font-size: 13px; fill: rgb(215, 215, 217);">join_date</text><text x="145.56666564941406" y="19.75" style="font-family: Open Sans, sans-serif; font-size: 13px; fill: rgb(215, 215, 217);">TIMESTAMP</text></svg></svg>