<?xml version="1.0" standalone="no"?><svg version="1.1" xmlns="http://www.w3.org/2000/svg" width="996.2666549682617" height="380"><svg x="207.14999389648438" y="23.5" width="336.98333740234375" height="85"><path d="M8,26L155.99166870117188,26Q165.99166870117188,26,165.99166870117188,36L165.99166870117188,49Q165.99166870117188,59,175.99166870117188,59L323.98333740234375,59L175.99166870117188,59Q165.99166870117188,59,165.99166870117188,49L165.99166870117188,36Q165.99166870117188,26,155.99166870117188,26L8,26L8,26M18,22L18,30M323.98333740234375,55L313.98333740234375,59L323.98333740234375,63" fill="none" stroke="#3EA8DE" stroke-width="2"></path><text x="11" y="23" style="font-family: Open Sans, sans-serif; font-size: 14px; font-weight: normal; fill: rgb(215, 215, 217);">1</text><text x="313.26667070388794" y="56" style="font-family: Open Sans, sans-serif; font-size: 14px; font-weight: normal; fill: rgb(215, 215, 217);">*</text></svg><svg x="473.1333312988281" y="23.5" width="71" height="52"><path d="M8,26L33,26Q33,26,33,26L33,26Q33,26,33,26L58,26L33,26Q33,26,33,26L33,26Q33,26,33,26L8,26L8,26M8,22L18,26L8,30M48,22L48,30" fill="none" stroke="#3EA8DE" stroke-width="2"></path><text x="11" y="23" style="font-family: Open Sans, sans-serif; font-size: 14px; font-weight: normal; fill: rgb(215, 215, 217);">*</text><text x="47" y="23" style="font-family: Open Sans, sans-serif; font-size: 14px; font-weight: normal; fill: rgb(215, 215, 217);">1</text></svg><svg x="433.0833282470703" y="89.5" width="71.05000305175781" height="267"><path d="M48.05000305175781,26L58.05000305175781,26Q68.05000305175781,26,68.05000305175781,36L68.05000305175781,231Q68.05000305175781,241,58.05000305175781,241L8,241L58.05000305175781,241Q68.05000305175781,241,68.05000305175781,231L68.05000305175781,36Q68.05000305175781,26,58.05000305175781,26L48.05000305175781,26L48.05000305175781,26ZM48.05000305175781,22L58.05000305175781,26L48.05000305175781,30M18,237L18,245" fill="none" stroke="#3EA8DE" stroke-width="2"></path><text x="51.05000305175781" y="23" style="font-family: Open Sans, sans-serif; font-size: 14px; font-weight: normal; fill: rgb(215, 215, 217);">*</text><text x="11" y="238" style="font-family: Open Sans, sans-serif; font-size: 14px; font-weight: normal; fill: rgb(215, 215, 217);">1</text></svg><svg x="473.1333312988281" y="23.5" width="355.8999938964844" height="118"><path d="M8,92L165.4499969482422,92Q175.4499969482422,92,175.4499969482422,82L175.4499969482422,36Q175.4499969482422,26,185.4499969482422,26L342.8999938964844,26L185.4499969482422,26Q175.4499969482422,26,175.4499969482422,36L175.4499969482422,82Q175.4499969482422,92,165.4499969482422,92L8,92L8,92M8,88L18,92L8,96M332.8999938964844,22L332.8999938964844,30" fill="none" stroke="#3EA8DE" stroke-width="2"></path><text x="11" y="89" style="font-family: Open Sans, sans-serif; font-size: 14px; font-weight: normal; fill: rgb(215, 215, 217);">*</text><text x="331.8999938964844" y="23" style="font-family: Open Sans, sans-serif; font-size: 14px; font-weight: normal; fill: rgb(215, 215, 217);">1</text></svg><svg x="0" y="0"><rect x="0" y="0" width="215.14999389648438" height="33" fill="#222"></rect><text x="10" y="19.75" style="font-family: Open Sans, sans-serif; font-size: 13px; font-weight: bold; fill: rgb(255, 255, 255);">runners</text></svg><svg x="0" y="33"><rect x="0" y="0" width="215.14999389648438" height="33" fill="#4B4C53"></rect><text x="10" y="19.75" style="font-family: Open Sans, sans-serif; font-size: 13px; fill: rgb(215, 215, 217);">runner_id</text><text x="152.6666603088379" y="19.75" style="font-family: Open Sans, sans-serif; font-size: 13px; fill: rgb(215, 215, 217);">INTEGER</text></svg><svg x="0" y="66"><rect x="0" y="0" width="215.14999389648438" height="33" fill="#37383F"></rect><text x="10" y="19.75" style="font-family: Open Sans, sans-serif; font-size: 13px; fill: rgb(215, 215, 217);">registration_date</text><text x="173.11666107177734" y="19.75" style="font-family: Open Sans, sans-serif; font-size: 13px; fill: rgb(215, 215, 217);">DATE</text></svg><svg x="265.1499938964844" y="0"><rect x="0" y="0" width="215.98333740234375" height="33" fill="#222"></rect><text x="10" y="19.75" style="font-family: Open Sans, sans-serif; font-size: 13px; font-weight: bold; fill: rgb(255, 255, 255);">customer_orders</text></svg><svg x="265.1499938964844" y="33"><rect x="0" y="0" width="215.98333740234375" height="33" fill="#4B4C53"></rect><text x="10" y="19.75" style="font-family: Open Sans, sans-serif; font-size: 13px; fill: rgb(215, 215, 217);">order_id</text><text x="153.50000381469727" y="19.75" style="font-family: Open Sans, sans-serif; font-size: 13px; fill: rgb(215, 215, 217);">INTEGER</text></svg><svg x="265.1499938964844" y="66"><rect x="0" y="0" width="215.98333740234375" height="33" fill="#37383F"></rect><text x="10" y="19.75" style="font-family: Open Sans, sans-serif; font-size: 13px; fill: rgb(215, 215, 217);">customer_id</text><text x="153.50000381469727" y="19.75" style="font-family: Open Sans, sans-serif; font-size: 13px; fill: rgb(215, 215, 217);">INTEGER</text></svg><svg x="265.1499938964844" y="99"><rect x="0" y="0" width="215.98333740234375" height="33" fill="#4B4C53"></rect><text x="10" y="19.75" style="font-family: Open Sans, sans-serif; font-size: 13px; fill: rgb(215, 215, 217);">pizza_id</text><text x="153.50000381469727" y="19.75" style="font-family: Open Sans, sans-serif; font-size: 13px; fill: rgb(215, 215, 217);">INTEGER</text></svg><svg x="265.1499938964844" y="132"><rect x="0" y="0" width="215.98333740234375" height="33" fill="#37383F"></rect><text x="10" y="19.75" style="font-family: Open Sans, sans-serif; font-size: 13px; fill: rgb(215, 215, 217);">exclusions</text><text x="132.9000015258789" y="19.75" style="font-family: Open Sans, sans-serif; font-size: 13px; fill: rgb(215, 215, 217);">VARCHAR(4)</text></svg><svg x="265.1499938964844" y="165"><rect x="0" y="0" width="215.98333740234375" height="33" fill="#37383F"></rect><text x="10" y="19.75" style="font-family: Open Sans, sans-serif; font-size: 13px; fill: rgb(215, 215, 217);">extras</text><text x="132.9000015258789" y="19.75" style="font-family: Open Sans, sans-serif; font-size: 13px; fill: rgb(215, 215, 217);">VARCHAR(4)</text></svg><svg x="265.1499938964844" y="198"><rect x="0" y="0" width="215.98333740234375" height="33" fill="#37383F"></rect><text x="10" y="19.75" style="font-family: Open Sans, sans-serif; font-size: 13px; fill: rgb(215, 215, 217);">order_date</text><text x="134.23333740234375" y="19.75" style="font-family: Open Sans, sans-serif; font-size: 13px; fill: rgb(215, 215, 217);">TIMESTAMP</text></svg><svg x="531.1333312988281" y="0"><rect x="0" y="0" width="234.89999389648438" height="33" fill="#222"></rect><text x="10" y="19.75" style="font-family: Open Sans, sans-serif; font-size: 13px; font-weight: bold; fill: rgb(255, 255, 255);">runner_orders</text></svg><svg x="531.1333312988281" y="33"><rect x="0" y="0" width="234.89999389648438" height="33" fill="#4B4C53"></rect><text x="10" y="19.75" style="font-family: Open Sans, sans-serif; font-size: 13px; fill: rgb(215, 215, 217);">order_id</text><text x="172.4166603088379" y="19.75" style="font-family: Open Sans, sans-serif; font-size: 13px; fill: rgb(215, 215, 217);">INTEGER</text></svg><svg x="531.1333312988281" y="66"><rect x="0" y="0" width="234.89999389648438" height="33" fill="#4B4C53"></rect><text x="10" y="19.75" style="font-family: Open Sans, sans-serif; font-size: 13px; fill: rgb(215, 215, 217);">runner_id</text><text x="172.4166603088379" y="19.75" style="font-family: Open Sans, sans-serif; font-size: 13px; fill: rgb(215, 215, 217);">INTEGER</text></svg><svg x="531.1333312988281" y="99"><rect x="0" y="0" width="234.89999389648438" height="33" fill="#37383F"></rect><text x="10" y="19.75" style="font-family: Open Sans, sans-serif; font-size: 13px; fill: rgb(215, 215, 217);">pickup_time</text><text x="144.3833236694336" y="19.75" style="font-family: Open Sans, sans-serif; font-size: 13px; fill: rgb(215, 215, 217);">VARCHAR(19)</text></svg><svg x="531.1333312988281" y="132"><rect x="0" y="0" width="234.89999389648438" height="33" fill="#37383F"></rect><text x="10" y="19.75" style="font-family: Open Sans, sans-serif; font-size: 13px; fill: rgb(215, 215, 217);">distance</text><text x="151.81665802001953" y="19.75" style="font-family: Open Sans, sans-serif; font-size: 13px; fill: rgb(215, 215, 217);">VARCHAR(7)</text></svg><svg x="531.1333312988281" y="165"><rect x="0" y="0" width="234.89999389648438" height="33" fill="#37383F"></rect><text x="10" y="19.75" style="font-family: Open Sans, sans-serif; font-size: 13px; fill: rgb(215, 215, 217);">duration</text><text x="144.3833236694336" y="19.75" style="font-family: Open Sans, sans-serif; font-size: 13px; fill: rgb(215, 215, 217);">VARCHAR(10)</text></svg><svg x="531.1333312988281" y="198"><rect x="0" y="0" width="234.89999389648438" height="33" fill="#37383F"></rect><text x="10" y="19.75" style="font-family: Open Sans, sans-serif; font-size: 13px; fill: rgb(215, 215, 217);">cancellation</text><text x="144.3833236694336" y="19.75" style="font-family: Open Sans, sans-serif; font-size: 13px; fill: rgb(215, 215, 217);">VARCHAR(23)</text></svg><svg x="816.0333251953125" y="0"><rect x="0" y="0" width="175.23332977294922" height="33" fill="#222"></rect><text x="10" y="19.75" style="font-family: Open Sans, sans-serif; font-size: 13px; font-weight: bold; fill: rgb(255, 255, 255);">pizza_recipes</text></svg><svg x="816.0333251953125" y="33"><rect x="0" y="0" width="175.23332977294922" height="33" fill="#4B4C53"></rect><text x="10" y="19.75" style="font-family: Open Sans, sans-serif; font-size: 13px; fill: rgb(215, 215, 217);">pizza_id</text><text x="112.74999618530273" y="19.75" style="font-family: Open Sans, sans-serif; font-size: 13px; fill: rgb(215, 215, 217);">INTEGER</text></svg><svg x="816.0333251953125" y="66"><rect x="0" y="0" width="175.23332977294922" height="33" fill="#37383F"></rect><text x="10" y="19.75" style="font-family: Open Sans, sans-serif; font-size: 13px; fill: rgb(215, 215, 217);">toppings</text><text x="136.16666221618652" y="19.75" style="font-family: Open Sans, sans-serif; font-size: 13px; fill: rgb(215, 215, 217);">TEXT</text></svg><svg x="0" y="149"><rect x="0" y="0" width="193.25" height="33" fill="#222"></rect><text x="10" y="19.75" style="font-family: Open Sans, sans-serif; font-size: 13px; font-weight: bold; fill: rgb(255, 255, 255);">pizza_toppings</text></svg><svg x="0" y="182"><rect x="0" y="0" width="193.25" height="33" fill="#37383F"></rect><text x="10" y="19.75" style="font-family: Open Sans, sans-serif; font-size: 13px; fill: rgb(215, 215, 217);">topping_id</text><text x="130.76666641235352" y="19.75" style="font-family: Open Sans, sans-serif; font-size: 13px; fill: rgb(215, 215, 217);">INTEGER</text></svg><svg x="0" y="215"><rect x="0" y="0" width="193.25" height="33" fill="#37383F"></rect><text x="10" y="19.75" style="font-family: Open Sans, sans-serif; font-size: 13px; fill: rgb(215, 215, 217);">topping_name</text><text x="154.1833324432373" y="19.75" style="font-family: Open Sans, sans-serif; font-size: 13px; fill: rgb(215, 215, 217);">TEXT</text></svg><svg x="265.1499938964844" y="281"><rect x="0" y="0" width="175.93333435058594" height="33" fill="#222"></rect><text x="10" y="19.75" style="font-family: Open Sans, sans-serif; font-size: 13px; font-weight: bold; fill: rgb(255, 255, 255);">pizza_names</text></svg><svg x="265.1499938964844" y="314"><rect x="0" y="0" width="175.93333435058594" height="33" fill="#4B4C53"></rect><text x="10" y="19.75" style="font-family: Open Sans, sans-serif; font-size: 13px; fill: rgb(215, 215, 217);">pizza_id</text><text x="113.45000076293945" y="19.75" style="font-family: Open Sans, sans-serif; font-size: 13px; fill: rgb(215, 215, 217);">INTEGER</text></svg><svg x="265.1499938964844" y="347"><rect x="0" y="0" width="175.93333435058594" height="33" fill="#37383F"></rect><text x="10" y="19.75" style="font-family: Open Sans, sans-serif; font-size: 13px; fill: rgb(215, 215, 217);">pizza_name</text><text x="136.86666679382324" y="19.75" style="font-family: Open Sans, sans-serif; font-size: 13px; fill: rgb(215, 215, 217);">TEXT</text></svg></svg>